<svg width="32" height="29" viewBox="0 0 32 29" fill="none" xmlns="http://www.w3.org/2000/svg">
<g clip-path="url(#clip0_23_758)">
<path d="M31.9889 14.1944C31.9889 15.1944 31.1556 15.9778 30.2111 15.9778H28.4333L28.4722 24.8778C28.4722 25.0278 28.4611 25.1778 28.4444 25.3278V26.2222C28.4444 27.45 27.45 28.4444 26.2222 28.4444H25.3333C25.2722 28.4444 25.2111 28.4444 25.15 28.4389C25.0722 28.4444 24.9944 28.4444 24.9167 28.4444H23.1111H21.7778C20.55 28.4444 19.5556 27.45 19.5556 26.2222V24.8889V21.3333C19.5556 20.35 18.7611 19.5556 17.7778 19.5556H14.2222C13.2389 19.5556 12.4444 20.35 12.4444 21.3333V24.8889V26.2222C12.4444 27.45 11.45 28.4444 10.2222 28.4444H8.88889H7.11667C7.03333 28.4444 6.95 28.4389 6.86667 28.4333C6.8 28.4389 6.73333 28.4444 6.66667 28.4444H5.77778C4.55 28.4444 3.55556 27.45 3.55556 26.2222V20C3.55556 19.95 3.55556 19.8944 3.56111 19.8444V15.9778H1.77778C0.777778 15.9778 0 15.2 0 14.1944C0 13.6944 0.166667 13.25 0.555556 12.8611L14.8 0.444444C15.1889 0.0555556 15.6333 0 16.0222 0C16.4111 0 16.8556 0.111111 17.1889 0.388889L31.3778 12.8611C31.8222 13.25 32.0444 13.6944 31.9889 14.1944Z" fill="#028090"/>
</g>
<defs>
<clipPath id="clip0_23_758">
<rect width="32" height="28.4444" fill="white"/>
</clipPath>
</defs>
</svg>
