<svg width="25" height="28" viewBox="0 0 25 28" fill="none" xmlns="http://www.w3.org/2000/svg">
<path d="M12.2502 0C11.2822 0 10.5002 0.782031 10.5002 1.75V2.8C6.50799 3.60938 3.50017 7.14219 3.50017 11.375V12.4031C3.50017 14.9734 2.55408 17.4562 0.84783 19.3812L0.443143 19.8352C-0.0162323 20.3492 -0.125607 21.0875 0.153299 21.7164C0.432205 22.3453 1.06111 22.75 1.75017 22.75H22.7502C23.4392 22.75 24.0627 22.3453 24.347 21.7164C24.6314 21.0875 24.5166 20.3492 24.0572 19.8352L23.6525 19.3812C21.9463 17.4562 21.0002 14.9789 21.0002 12.4031V11.375C21.0002 7.14219 17.9924 3.60938 14.0002 2.8V1.75C14.0002 0.782031 13.2181 0 12.2502 0ZM14.7275 26.9773C15.3838 26.3211 15.7502 25.4297 15.7502 24.5H12.2502H8.75017C8.75017 25.4297 9.11658 26.3211 9.77283 26.9773C10.4291 27.6336 11.3205 28 12.2502 28C13.1799 28 14.0713 27.6336 14.7275 26.9773Z" fill="#677498"/>
</svg>
